<svg xmlns="http://www.w3.org/2000/svg" xmlns:xlink="http://www.w3.org/1999/xlink" width="133.911" height="20" viewBox="0 0 133.911 20">
  <defs>
    <clipPath id="clip-path">
      <path id="Clip_63" data-name="Clip 63" d="M0,0H10.832V11.823H0Z" transform="translate(0.023 0.012)" fill="none"/>
    </clipPath>
    <clipPath id="clip-path-2">
      <path id="Clip_68" data-name="Clip 68" d="M0,0H10.832V11.823H0Z" transform="translate(0.021 0.012)" fill="none"/>
    </clipPath>
    <clipPath id="clip-path-3">
      <path id="Clip_2" data-name="Clip 2" d="M0,0H4.341V4.393H0Z" transform="translate(0.046 0.005)" fill="none"/>
    </clipPath>
    <clipPath id="clip-path-4">
      <path id="Clip_15" data-name="Clip 15" d="M0,0H4.388V4.395H0Z" transform="translate(0 0.005)" fill="none"/>
    </clipPath>
    <clipPath id="clip-path-5">
      <path id="Clip_24" data-name="Clip 24" d="M0,0H4.388V4.393H0Z" transform="translate(0.002 0.007)" fill="none"/>
    </clipPath>
  </defs>
  <g id="Logo_small" data-name="Logo/small" transform="translate(-0.066)">
    <g id="Logo">
      <g id="Group_64" data-name="Group 64" transform="translate(64.072 8.139)">
        <path id="Clip_63-2" data-name="Clip 63" d="M0,0H10.832V11.823H0Z" transform="translate(0.023 0.012)" fill="none"/>
        <g id="Group_64-2" data-name="Group 64" clip-path="url(#clip-path)">
          <path id="Fill_62" data-name="Fill 62" d="M1.059,9.877A5.884,5.884,0,0,1,0,5.912V0H2.339V6.281A3.287,3.287,0,0,0,3,8.6a2.955,2.955,0,0,0,2.24,1.01,4.4,4.4,0,0,0,3.25-1.65V0h2.339V11.577H8.567V10.518a5.208,5.208,0,0,1-7.509-.64" transform="translate(0.023 0.012)" fill="#5700ff"/>
        </g>
      </g>
      <path id="Fill_65" data-name="Fill 65" d="M5.736,0A4.237,4.237,0,0,0,2.265,1.576V.246H0V11.823H2.339V4.163A3.876,3.876,0,0,1,5.465,2.217a3.326,3.326,0,0,1,.911.1V.036C6.152.012,5.908,0,5.736,0" transform="translate(92.042 7.905)" fill="#5700ff"/>
      <g id="Group_69" data-name="Group 69" transform="translate(100.637 8.139)">
        <path id="Clip_68-2" data-name="Clip 68" d="M0,0H10.832V11.823H0Z" transform="translate(0.021 0.012)" fill="none"/>
        <g id="Group_69-2" data-name="Group 69" clip-path="url(#clip-path-2)">
          <path id="Fill_67" data-name="Fill 67" d="M1.059,9.877A5.884,5.884,0,0,1,0,5.912V0H2.339V6.281A3.287,3.287,0,0,0,3,8.6a2.955,2.955,0,0,0,2.24,1.01,4.4,4.4,0,0,0,3.25-1.65V0h2.339V11.577H8.567V10.518a5.208,5.208,0,0,1-7.509-.64" transform="translate(0.021 0.012)" fill="#5700ff"/>
        </g>
      </g>
      <path id="Fill_70" data-name="Fill 70" d="M2.265.246V1.355A5.035,5.035,0,0,1,5.662,0,5.242,5.242,0,0,1,9.749,1.921,5.791,5.791,0,0,1,14.155,0a5.235,5.235,0,0,1,4.111,1.946,5.884,5.884,0,0,1,1.059,3.966v5.912H16.987V5.542a3.287,3.287,0,0,0-.665-2.315,2.837,2.837,0,0,0-2.166-1.01,4.749,4.749,0,0,0-3.52,1.65,9.581,9.581,0,0,1,.2,2.044v5.912H8.493V5.542a3.287,3.287,0,0,0-.665-2.315,2.955,2.955,0,0,0-2.24-1.01,4.4,4.4,0,0,0-3.25,1.65v7.956H0V.246Z" transform="translate(114.652 7.905)" fill="#5700ff"/>
      <path id="Fill_72" data-name="Fill 72" d="M8.854,17.718A8.864,8.864,0,1,1,15.51,14.7l2.5,2.783-3.1-.009L13.766,16.23A8.811,8.811,0,0,1,8.854,17.718Zm0-15.4A6.537,6.537,0,1,0,12.19,14.476L9.14,11.087l1.725-1.552,3.076,3.419A6.533,6.533,0,0,0,8.854,2.322Z" transform="translate(43.888 2.256)" fill="#5700ff"/>
      <path id="Fill_74" data-name="Fill 74" d="M6.032,12.07a6.035,6.035,0,1,1,6.031-6.035A6.04,6.04,0,0,1,6.032,12.07Zm0-9.854A3.819,3.819,0,1,0,9.849,6.035,3.823,3.823,0,0,0,6.032,2.216Z" transform="translate(77.453 7.905)" fill="#5700ff"/>
      <g id="Group_26" data-name="Group 26">
        <g id="Group_3" data-name="Group 3" transform="translate(31.236 15.6)">
          <path id="Clip_2-2" data-name="Clip 2" d="M0,0H4.341V4.393H0Z" transform="translate(0.046 0.005)" fill="none"/>
          <g id="Group_3-2" data-name="Group 3" clip-path="url(#clip-path-3)">
            <path id="Fill_1" data-name="Fill 1" d="M2.17,0A2.183,2.183,0,0,0,0,2.2v0A2.182,2.182,0,0,0,2.17,4.393,2.185,2.185,0,0,0,4.341,2.2,2.183,2.183,0,0,0,2.17,0" transform="translate(0.046 0.005)" fill="#00e290"/>
          </g>
        </g>
        <path id="Fill_4" data-name="Fill 4" d="M3.3,4.1a2.2,2.2,0,1,0-3.013-.82L.3,3.3a2.194,2.194,0,0,0,3,.8" transform="translate(29.238 7.733)" fill="#00e290"/>
        <path id="Fill_6" data-name="Fill 6" d="M3.3.3A2.2,2.2,0,1,0,4.1,3.306l0-.007a2.2,2.2,0,0,0-.8-3" transform="translate(2.198 7.733)" fill="#5700ff"/>
        <path id="Fill_8" data-name="Fill 8" d="M2.2,4.4A2.2,2.2,0,0,0,4.109,1.113,2.193,2.193,0,0,0,1.116.287L1.079.309A2.2,2.2,0,0,0,2.2,4.4" transform="translate(7.792 2.133)" fill="#5700ff"/>
        <path id="Fill_10" data-name="Fill 10" d="M2.2,0a2.2,2.2,0,0,0,0,4.4H2.2A2.2,2.2,0,0,0,2.2,0" transform="translate(15.651)" fill="#5700ff"/>
        <path id="Fill_12" data-name="Fill 12" d="M1.079,4.091l.028.016A2.2,2.2,0,0,0,3.3.3,2.2,2.2,0,0,0,1.079,4.091" transform="translate(23.51 2.133)" fill="#00e290"/>
        <g id="Group_16" data-name="Group 16" transform="translate(0.067 15.6)">
          <path id="Clip_15-2" data-name="Clip 15" d="M0,0H4.388V4.395H0Z" transform="translate(0 0.005)" fill="none"/>
          <g id="Group_16-2" data-name="Group 16" clip-path="url(#clip-path-4)">
            <path id="Fill_14" data-name="Fill 14" d="M2.236,0A2.2,2.2,0,0,0,0,2.154c0,.014,0,.031,0,.045A2.194,2.194,0,1,0,2.236,0" transform="translate(0 0.005)" fill="#5700ff"/>
          </g>
        </g>
        <path id="Fill_17" data-name="Fill 17" d="M2.2,0A2.2,2.2,0,0,0,0,2.2v0A2.2,2.2,0,1,0,2.2,0" transform="translate(23.91 15.6)" fill="#00e290"/>
        <path id="Fill_19" data-name="Fill 19" d="M3.294,4.1A2.2,2.2,0,0,0,1.108.292L1.095.3a2.2,2.2,0,1,0,2.2,3.8" transform="translate(11.522 8.4)" fill="#5700ff"/>
        <path id="Fill_21" data-name="Fill 21" d="M1.1,4.1A2.2,2.2,0,0,0,3.3.3L3.289.293A2.2,2.2,0,0,0,1.1,4.1" transform="translate(19.914 8.4)" fill="#00e290"/>
        <g id="Group_25" data-name="Group 25" transform="translate(7.393 15.6)">
          <path id="Clip_24-2" data-name="Clip 24" d="M0,0H4.388V4.393H0Z" transform="translate(0.002 0.007)" fill="none"/>
          <g id="Group_25-2" data-name="Group 25" clip-path="url(#clip-path-5)">
            <path id="Fill_23" data-name="Fill 23" d="M2.194,0A2.2,2.2,0,1,0,4.388,2.2v0A2.193,2.193,0,0,0,2.194,0" transform="translate(0.002 0.007)" fill="#5700ff"/>
          </g>
        </g>
      </g>
    </g>
  </g>
</svg>
