<svg xmlns="http://www.w3.org/2000/svg" width="133.911" height="20" viewBox="0 0 133.911 20"><defs><clipPath id="a"><path data-name="Clip 63" d="M0 0h10.832v11.823H0z" transform="translate(.023 .012)" fill="none"/></clipPath><clipPath id="b"><path data-name="Clip 68" d="M0 0h10.832v11.823H0z" transform="translate(.021 .012)" fill="none"/></clipPath><clipPath id="c"><path data-name="Clip 2" d="M0 0h4.341v4.393H0z" transform="translate(.046 .005)" fill="none"/></clipPath><clipPath id="d"><path data-name="Clip 15" d="M0 0h4.388v4.395H0z" transform="translate(0 .005)" fill="none"/></clipPath><clipPath id="e"><path data-name="Clip 24" d="M0 0h4.388v4.393H0z" transform="translate(.002 .007)" fill="none"/></clipPath></defs><g data-name="Logo/small"><g data-name="Group 64"><path data-name="Clip 63" d="M64.029 8.151h10.832v11.823H64.029z" fill="none"/><g data-name="Group 64" clip-path="url(#a)" transform="translate(64.006 8.139)"><path data-name="Fill 62" d="M1.082 9.889A5.884 5.884 0 0 1 .023 5.924V.012h2.339v6.281a3.287 3.287 0 0 0 .661 2.319 2.955 2.955 0 0 0 2.24 1.01 4.4 4.4 0 0 0 3.25-1.65V.012h2.339v11.577H8.59V10.53a5.208 5.208 0 0 1-7.509-.64" fill="#5700ff"/></g></g><path data-name="Fill 65" d="M97.712 7.905a4.237 4.237 0 0 0-3.471 1.576v-1.33h-2.265v11.577h2.339v-7.66a3.876 3.876 0 0 1 3.126-1.946 3.326 3.326 0 0 1 .911.1V7.941a6.488 6.488 0 0 0-.64-.036" fill="#5700ff"/><g data-name="Group 69"><path data-name="Clip 68" d="M100.592 8.151h10.832v11.823h-10.832z" fill="none"/><g data-name="Group 69" clip-path="url(#b)" transform="translate(100.571 8.139)"><path data-name="Fill 67" d="M1.08 9.889A5.884 5.884 0 0 1 .021 5.924V.012H2.36v6.281a3.287 3.287 0 0 0 .661 2.319 2.955 2.955 0 0 0 2.24 1.01 4.4 4.4 0 0 0 3.25-1.65V.012h2.339v11.577H8.588V10.53a5.208 5.208 0 0 1-7.509-.64" fill="#5700ff"/></g></g><path data-name="Fill 70" d="M116.851 8.151V9.26a5.035 5.035 0 0 1 3.397-1.355 5.242 5.242 0 0 1 4.087 1.921 5.791 5.791 0 0 1 4.406-1.921 5.235 5.235 0 0 1 4.111 1.946 5.884 5.884 0 0 1 1.059 3.966v5.912h-2.338v-6.282a3.287 3.287 0 0 0-.665-2.315 2.837 2.837 0 0 0-2.166-1.01 4.749 4.749 0 0 0-3.52 1.65 9.581 9.581 0 0 1 .2 2.044v5.912h-2.343v-6.281a3.287 3.287 0 0 0-.665-2.315 2.955 2.955 0 0 0-2.24-1.01 4.4 4.4 0 0 0-3.25 1.65v7.956h-2.338V8.151z" fill="#5700ff"/><path data-name="Fill 72" d="M52.676 19.974a8.864 8.864 0 1 1 6.656-3.018l2.5 2.783-3.1-.009-1.144-1.244a8.811 8.811 0 0 1-4.912 1.488zm0-15.4a6.537 6.537 0 1 0 3.336 12.158l-3.05-3.389 1.725-1.552 3.076 3.419a6.533 6.533 0 0 0-5.087-10.632z" fill="#5700ff"/><path data-name="Fill 74" d="M83.419 19.975a6.035 6.035 0 1 1 6.031-6.035 6.04 6.04 0 0 1-6.031 6.035zm0-9.854a3.819 3.819 0 1 0 3.817 3.819 3.823 3.823 0 0 0-3.817-3.819z" fill="#5700ff"/><g data-name="Group 26"><g data-name="Group 3"><path data-name="Clip 2" d="M31.216 15.605h4.341v4.393h-4.341z" fill="none"/><g data-name="Group 3" clip-path="url(#c)" transform="translate(31.17 15.6)"><path data-name="Fill 1" d="M2.216.005a2.183 2.183 0 0 0-2.17 2.2 2.182 2.182 0 0 0 2.17 2.193 2.185 2.185 0 0 0 2.171-2.193 2.183 2.183 0 0 0-2.171-2.2" fill="#00e290"/></g></g><path data-name="Fill 4" d="M32.472 11.833a2.2 2.2 0 1 0-3.013-.82l.013.02a2.194 2.194 0 0 0 3 .8" fill="#00e290"/><path data-name="Fill 6" d="M5.432 8.033a2.2 2.2 0 1 0 .8 3.006v-.007a2.2 2.2 0 0 0-.8-3" fill="#5700ff"/><path data-name="Fill 8" d="M9.926 6.533a2.2 2.2 0 0 0 1.909-3.287 2.193 2.193 0 0 0-2.993-.826l-.037.022a2.2 2.2 0 0 0 1.121 4.091" fill="#5700ff"/><path data-name="Fill 10" d="M17.785 0a2.2 2.2 0 0 0 0 4.4 2.2 2.2 0 0 0 0-4.4" fill="#5700ff"/><path data-name="Fill 12" d="M24.523 6.224l.028.016a2.2 2.2 0 0 0 2.193-3.807 2.2 2.2 0 0 0-2.221 3.791" fill="#00e290"/><g data-name="Group 16"><path data-name="Clip 15" d="M.001 15.605h4.388V20H.001z" fill="none"/><g data-name="Group 16" clip-path="url(#d)" transform="translate(.001 15.6)"><path data-name="Fill 14" d="M2.236.005A2.2 2.2 0 0 0 0 2.159v.045A2.194 2.194 0 1 0 2.236.005" fill="#5700ff"/></g></g><path data-name="Fill 17" d="M26.044 15.6a2.2 2.2 0 0 0-2.2 2.2 2.2 2.2 0 1 0 2.2-2.2" fill="#00e290"/><path data-name="Fill 19" d="M14.75 12.5a2.2 2.2 0 0 0-2.186-3.808l-.013.008a2.2 2.2 0 1 0 2.2 3.8" fill="#5700ff"/><path data-name="Fill 21" d="M20.948 12.5a2.2 2.2 0 0 0 2.2-3.8l-.011-.007a2.2 2.2 0 0 0-2.189 3.807" fill="#00e290"/><g data-name="Group 25"><path data-name="Clip 24" d="M7.329 15.607h4.388V20H7.329z" fill="none"/><g data-name="Group 25" clip-path="url(#e)" transform="translate(7.327 15.6)"><path data-name="Fill 23" d="M2.196.007a2.2 2.2 0 1 0 2.194 2.2 2.193 2.193 0 0 0-2.194-2.2" fill="#5700ff"/></g></g></g></g></svg>